<svg width="766" height="620" viewBox="0 0 766 620" fill="none" xmlns="http://www.w3.org/2000/svg">
<g clip-path="url(#clip0_1_26)">
<path d="M492.403 312.431C486.821 308.186 480.592 304.022 473.754 300.009C467.879 296.563 461.534 293.237 454.815 290.073C453.191 289.305 451.511 288.424 449.7 287.736C448.533 287.298 447.427 286.961 447.823 286.368C448.328 285.551 451.389 285.612 453.098 285.492C456.534 285.248 459.992 285.035 463.5 284.858C479.08 284.041 495.072 283.638 510.545 282.716C517.376 282.301 524.143 281.795 530.949 281.362C534.444 281.132 537.977 280.929 541.544 280.766C545.918 280.565 548.759 280.252 553.884 281.919C562.606 284.756 570.031 288.588 577.152 292.242C584.826 296.181 592.203 300.15 597.925 304.54C601.927 307.615 604.562 310.784 605.696 313.836C606.248 315.315 606.507 316.77 606.526 318.181C606.566 319.579 606.845 321.25 606.103 322.473C605.456 323.562 604.188 324.059 602.432 324.405C577.699 327.203 518.489 335.666 514.42 336.36C514.082 336.419 513.757 336.487 513.419 336.545C512.904 336.563 512.363 336.475 511.804 336.072C511.113 335.588 510.961 334.973 510.777 334.495C510.405 333.506 509.987 332.513 509.519 331.526C506.521 325.141 500.765 318.783 492.403 312.431ZM593.082 391.185C591.428 390.87 591.404 390.391 591.172 389.821C590.81 388.94 589.898 387.95 589.197 387.041C586.386 383.326 582.93 379.593 578.909 375.884C574.209 371.57 568.718 367.291 562.652 363.114C553.568 356.875 542.702 351.238 529.905 346.224C527.917 345.452 525.895 344.685 523.87 343.929C522.884 343.564 521.579 343.112 520.893 342.617C520.334 342.213 520.494 342.026 520.882 341.917C521.245 341.877 521.634 341.855 521.985 341.805C526.333 341.312 585.81 333.043 608.929 329.08C610.914 328.898 612.919 328.933 615.866 329.504C619.225 330.171 622.915 331.349 626.112 332.302C629.354 333.259 632.556 334.287 635.626 335.422C641.95 337.753 647.511 340.498 651.947 343.512C658.288 347.814 662.508 352.229 666.474 356.691C670.155 360.831 674.056 365.159 674.758 369.138C675.174 371.47 672.536 371.929 669.128 372.827C666.349 373.559 663.502 374.256 660.617 374.926C655.002 376.234 649.293 377.489 643.745 378.83C631.212 381.859 619.51 385.374 607.12 388.492C604.324 389.182 601.527 389.873 598.65 390.52C597.233 390.851 595.316 391.615 593.082 391.185Z" fill="white"/>
<path d="M585.499 398.449C587.926 398.183 595.269 397.849 596.513 397.652C612.69 395.293 658.446 382.063 670.248 379.312L670.974 379.144C675.669 378.109 681.599 377.13 685.007 375.411C688.435 373.677 685.449 370.053 683.789 367.371C676.813 356.285 666.93 344.052 645.909 334.212C637.709 330.37 628.195 327.206 617.238 325.134C619.821 321.163 618.877 316.779 615.501 312.267C606.838 300.684 585.131 290.119 564.126 281.012C559.042 278.813 552.625 275.651 546.295 275.305C540.016 274.952 533.772 275.69 528.196 276.104L527.318 276.162C513 277.096 451.551 279.001 435.183 281.222C433.871 281.385 428.184 282.9 425.935 283.294C422.689 283.862 418.993 284.12 415.764 284.685C414.34 284.667 413.467 284.987 413.145 285.504C412.599 285.888 412.594 286.36 412.907 286.831C412.296 288.09 416.064 289.686 418.346 290.756C438.953 300.325 454.615 311.831 466.928 322.964C469.121 324.935 471.183 326.914 473.133 328.897C475.151 330.959 476.461 332.999 477.847 335.051C478.992 336.742 480.406 338.483 482.1 340.196C483.243 341.438 484.631 342.613 485.338 343.138C485.592 343.321 485.854 343.482 486.113 343.653C486.354 343.828 486.545 344.009 486.787 344.183C487.511 344.706 489.3 345.824 491.427 346.927C494.257 348.479 497.341 349.985 500.491 351.393C504.315 353.101 508.176 354.793 511.597 356.657C514.883 358.451 518.081 360.27 521.175 362.113C538.686 372.503 554.829 383.952 563.144 395.255C564.06 396.507 565.24 398.467 568.57 399.17C569.464 399.571 570.549 399.878 571.806 400.008C573.221 400.279 574.552 400.289 575.467 399.941C578.929 399.529 581.998 398.833 585.499 398.449ZM492.403 312.431C486.821 308.186 480.592 304.022 473.754 300.009C467.879 296.563 461.534 293.237 454.815 290.074C453.191 289.305 451.511 288.424 449.7 287.736C448.533 287.298 447.427 286.961 447.823 286.368C448.328 285.551 451.389 285.612 453.098 285.492C456.534 285.248 459.992 285.035 463.5 284.858C479.08 284.041 495.072 283.638 510.545 282.716C517.376 282.301 524.143 281.795 530.949 281.362C534.444 281.132 537.977 280.929 541.544 280.766C545.918 280.565 548.759 280.252 553.884 281.919C562.606 284.756 570.031 288.588 577.152 292.242C584.826 296.181 592.203 300.15 597.925 304.54C601.927 307.615 604.562 310.784 605.696 313.837C606.248 315.315 606.507 316.77 606.526 318.181C606.566 319.579 606.845 321.25 606.103 322.473C605.456 323.562 604.188 324.059 602.432 324.405C577.699 327.203 518.489 335.666 514.42 336.36C514.082 336.419 513.757 336.487 513.419 336.545C512.904 336.563 512.363 336.475 511.804 336.072C511.113 335.588 510.961 334.973 510.777 334.495C510.405 333.506 509.987 332.513 509.518 331.526C506.521 325.141 500.765 318.783 492.403 312.431ZM593.082 391.185C591.428 390.87 591.404 390.391 591.172 389.821C590.81 388.94 589.898 387.95 589.197 387.041C586.386 383.326 582.93 379.593 578.909 375.884C574.209 371.57 568.718 367.291 562.652 363.114C553.568 356.875 542.702 351.238 529.905 346.224C527.917 345.452 525.895 344.685 523.87 343.929C522.884 343.564 521.579 343.112 520.893 342.617C520.334 342.213 520.494 342.026 520.882 341.917C521.245 341.877 521.634 341.855 521.985 341.805C526.333 341.312 585.81 333.043 608.929 329.08C610.914 328.898 612.919 328.933 615.866 329.504C619.225 330.171 622.915 331.349 626.112 332.302C629.354 333.259 632.556 334.287 635.626 335.422C641.95 337.753 647.511 340.498 651.947 343.512C658.288 347.814 662.508 352.229 666.474 356.691C670.155 360.831 674.056 365.159 674.758 369.138C675.174 371.47 672.536 371.929 669.128 372.827C666.349 373.559 663.502 374.256 660.617 374.926C655.002 376.234 649.293 377.489 643.745 378.83C631.212 381.859 619.51 385.374 607.12 388.492C604.324 389.182 601.527 389.873 598.65 390.52C597.233 390.851 595.316 391.615 593.082 391.185Z" fill="black"/>
<path d="M592.364 316.649C587.745 306.919 571.932 295.16 552.206 287.495C546.983 285.469 543.683 288.347 548.747 290.373C565.232 296.939 578.427 307.268 582.131 315.374C583.485 318.296 593.747 319.578 592.364 316.649ZM572.443 319.13C567.016 308.845 553.336 296.567 531.662 288.475C526.95 286.717 524.204 289.231 528.624 291.008C547.444 298.582 557.559 309.412 563.473 318.521C564.989 320.884 573.691 321.487 572.443 319.13ZM552.279 321.394C552.423 320.201 551.231 318.735 550.377 317.441C544.194 308.052 528.633 296.62 509.527 289.459C505.324 287.882 502.637 290.092 506.05 291.748C514.598 295.914 521.742 299.96 528.293 304.616C533.43 308.266 537.329 311.685 540.266 315.447C541.16 316.582 542.34 317.621 542.87 318.753C543.256 319.564 543.716 320.574 544.638 321.397C546.668 323.194 551.823 322.894 552.234 321.663L552.279 321.394ZM532.2 323.141C526.968 312.017 509.972 301.105 489.611 291.973C485.403 290.089 480.964 291.899 485.089 293.839C494.338 298.18 501.81 301.829 508.878 306.829C515.662 311.639 520.046 317.28 523.014 322.146C524.585 324.763 533.471 325.845 532.2 323.141ZM616.228 339.967C632.525 346.296 647.574 356.364 651.717 364.671C652.977 367.223 661.898 368.387 660.716 365.791C656.235 355.986 639.62 344.341 620.171 336.703C614.282 334.398 610.336 337.674 616.228 339.967ZM596.371 342.264C613.508 349.79 631.806 359.465 636.698 369.004C637.844 371.243 645.52 372.287 644.616 369.992C640.431 359.422 621.173 347.93 600.996 339.737C596.373 337.856 591.903 340.307 596.371 342.264ZM576.999 344.766C578.301 345.547 580.306 346.317 581.927 346.954C584.206 347.85 585.821 348.828 587.85 349.802C594.579 353.03 599.88 356.251 604.9 359.917C611.302 364.594 615.886 369.013 619.775 373.836C621.305 375.747 628.253 376.598 627.42 374.555C623.679 365.227 607.637 353.852 590.044 346.083C587.62 345.011 585.042 343.741 582.15 342.965L581.478 342.797C578.368 342.052 574.213 343.087 576.999 344.766ZM608.207 377.562C600.739 366.611 586.882 355.256 564.616 346.535C559.203 344.415 555.73 347.24 560.754 349.382C570.023 353.348 580.138 358.17 586.735 363.017C593.556 368.041 596.999 372.269 600.825 377.364C602.542 379.655 609.742 379.823 608.207 377.562Z" fill="black"/>
</g>
<path d="M263.126 522.889C263.126 522.889 364.931 578.444 398.867 411.778C432.802 245.111 263.126 522.889 263.126 522.889Z" fill="#1A8475" stroke="#1A8475" stroke-width="5" stroke-miterlimit="10" stroke-linecap="round" stroke-linejoin="round"/>
<path d="M274.437 425.667C274.437 425.667 343.722 388.444 349.672 437.292C351.368 451.264 346.923 465.319 339.321 475.917L285.749 550.667C285.772 550.667 358.484 577.194 344.197 598.125C319.684 634 217.879 606.222 217.879 606.222L229.19 536.778C48.2362 592.333 2.97792 384.083 2.9553 384C3.01186 384.056 163.22 546.014 230.129 409.458C297.061 272.889 265.015 -2.56943 405.461 3.20835C500.005 7.09724 516.814 68.6945 517.708 108.528C518.138 127.875 514.812 142.097 514.812 142.097C514.062 149.285 512.856 156.39 511.203 163.347C498.15 216.625 463.015 205.014 430.913 218.486C395.1 233.542 407.35 279.833 407.35 279.833C472.393 259 466.737 356.222 444.113 328.444C421.49 300.667 408.289 346.958 408.289 346.958C408.289 346.958 410.178 439.556 387.555 467.333" fill="#1A8475"/>
<path d="M274.437 425.667C274.437 425.667 343.722 388.444 349.672 437.292C351.368 451.264 346.923 465.319 339.321 475.917L285.749 550.667C285.772 550.667 358.484 577.194 344.197 598.125C319.684 634 217.879 606.222 217.879 606.222L229.19 536.778C48.2362 592.333 2.97792 384.083 2.9553 384C3.01186 384.056 163.22 546.014 230.129 409.458C297.061 272.889 265.015 -2.56943 405.461 3.20835C500.005 7.09724 516.814 68.6945 517.708 108.528C518.138 127.875 514.812 142.097 514.812 142.097C514.062 149.285 512.856 156.39 511.203 163.347C498.15 216.625 463.015 205.014 430.913 218.486C395.1 233.542 407.35 279.833 407.35 279.833C472.393 259 466.737 356.222 444.113 328.444C421.49 300.667 408.289 346.958 408.289 346.958C408.289 346.958 410.178 439.556 387.555 467.333" stroke="#1A8475" stroke-width="5" stroke-miterlimit="10" stroke-linecap="round" stroke-linejoin="round"/>
<path d="M410.178 356.222C432.802 356.222 455.425 397.889 455.425 397.889C466.737 453.444 405.461 513.625 405.461 513.625C405.461 513.625 534.607 550.667 429.035 555.292C323.462 559.917 353.619 522.889 353.619 522.889C353.619 522.889 387.555 495.111 410.178 397.889" fill="#1A8475"/>
<path d="M410.178 356.222C432.802 356.222 455.425 397.889 455.425 397.889C466.737 453.444 405.461 513.625 405.461 513.625C405.461 513.625 534.607 550.667 429.035 555.292C323.462 559.917 353.619 522.889 353.619 522.889C353.619 522.889 387.555 495.111 410.178 397.889" stroke="#1A8475" stroke-width="5" stroke-miterlimit="10"/>
<path d="M319.684 328.444C319.684 328.444 342.308 275.208 370.587 308.764C398.866 342.319 364.931 356.222 353.619 342.333C342.308 328.444 330.996 370.111 330.996 370.111" stroke="black" stroke-width="5.55556" stroke-miterlimit="10" stroke-linecap="round" stroke-linejoin="round"/>
<path d="M274.437 425.667C274.437 425.667 343.722 388.444 349.672 437.292C351.369 451.264 346.923 465.319 339.321 475.917L285.749 550.667C285.749 550.667 358.484 577.194 344.197 598.125C319.684 634 217.879 606.222 217.879 606.222L229.19 536.778C48.2023 592.333 2.9553 384 2.9553 384C2.9553 384 163.209 546.042 230.129 409.458C297.049 272.875 265.015 -2.56942 405.461 3.20836C500.005 7.09724 516.814 68.6945 517.708 108.528C518.138 127.875 514.812 142.097 514.812 142.097C514.062 149.285 512.856 156.39 511.203 163.347C498.15 216.625 463.015 205.014 430.913 218.486C395.1 233.542 407.35 279.833 407.35 279.833C472.393 259 466.737 356.222 444.113 328.444C421.49 300.667 408.289 346.958 408.289 346.958C408.289 346.958 403 542 302 534" stroke="black" stroke-width="5.55556" stroke-miterlimit="10" stroke-linecap="round" stroke-linejoin="round"/>
<path d="M452.528 382C493.46 421.359 406.719 513.936 406.719 513.936C406.719 513.936 540.24 550.975 431.091 555.6C321.943 560.225 353.122 523.199 353.122 523.199" stroke="black" stroke-width="5.55556" stroke-miterlimit="10" stroke-linecap="round" stroke-linejoin="round"/>
<ellipse cx="391.174" cy="84" rx="20.3611" ry="25" fill="white"/>
<ellipse cx="401.355" cy="86.5" rx="10.1806" ry="12.5" fill="#5D1D64"/>
<path d="M620.908 189.896C623.781 179.179 623.766 169.714 621.381 164.858C621.119 164.321 620.977 163.67 620.966 162.94C620.954 162.211 621.071 161.418 621.312 160.607C621.553 159.796 621.912 158.982 622.368 158.213C622.825 157.444 623.37 156.734 623.973 156.123C624.576 155.513 625.225 155.014 625.882 154.655C626.54 154.296 627.193 154.085 627.805 154.033C628.417 153.98 628.976 154.088 629.449 154.35C629.923 154.613 630.302 155.024 630.564 155.56C634.235 163.05 633.799 175.797 630.367 188.615C626.91 201.519 620.053 215.87 609.655 226.404C608.437 227.637 607.058 228.389 605.822 228.494C604.586 228.6 603.594 228.05 603.063 226.967C602.533 225.883 602.508 224.354 602.994 222.716C603.48 221.078 604.437 219.465 605.655 218.232C612.735 211.065 618.064 200.533 620.913 189.896" fill="#5D1D64"/>
<path fill-rule="evenodd" clip-rule="evenodd" d="M534.366 258.636C541.657 269.941 553.517 275.458 567.831 274.201C601.292 271.328 639.069 233.061 652.212 188.725C665.355 144.389 648.885 110.779 615.423 113.652C581.961 116.525 544.184 154.792 531.041 199.129C525.193 218.858 525.208 236.458 529.974 249.674L520.387 248.186L471.614 297.591L483.342 321.522L532.114 272.117L534.366 258.636ZM545.023 197.928C534.913 232.033 547.583 257.886 573.322 255.677C599.062 253.467 628.121 224.03 638.231 189.926C648.341 155.821 635.671 129.967 609.931 132.177C584.192 134.387 555.132 163.824 545.023 197.928Z" fill="#5D1D64"/>
<path d="M462.436 306.888L474.164 330.819L465.362 339.735C460.409 344.752 454.644 345.247 452.49 340.84L448.579 332.859C446.42 328.453 448.684 320.815 453.635 315.804L462.436 306.888Z" fill="#5D1D64"/>
<ellipse cx="491.5" cy="87" rx="6.5" ry="6" fill="black"/>
<defs>
<clipPath id="clip0_1_26">
<rect width="200.585" height="215.885" fill="white" transform="matrix(0.810886 0.585204 -0.990196 0.139685 602.769 257)"/>
</clipPath>
</defs>
</svg>
